<svg width="24" height="24" viewBox="0 0 24 24" fill="none" xmlns="http://www.w3.org/2000/svg">
<path d="M21.12 22.08C22.1804 22.08 23.04 21.2204 23.04 20.16C23.04 19.0996 22.1804 18.24 21.12 18.24C20.0596 18.24 19.2 19.0996 19.2 20.16C19.2 21.2204 20.0596 22.08 21.12 22.08Z" fill="#DDF23D"/>
<path d="M7.2 22.08C8.26039 22.08 9.12 21.2204 9.12 20.16C9.12 19.0996 8.26039 18.24 7.2 18.24C6.13961 18.24 5.28 19.0996 5.28 20.16C5.28 21.2204 6.13961 22.08 7.2 22.08Z" fill="#DDF23D"/>
<path d="M22.56 15.84H7.57008L7.89024 15.3206C8.02752 15.0979 8.06784 14.8286 8.00208 14.5752L7.6896 13.3723L21.6014 12.6494C22.129 12.6226 22.56 12.168 22.56 11.64V5.28C22.56 4.752 22.128 4.32 21.6 4.32H5.33712L5.14944 3.59856C5.09597 3.3928 4.97571 3.21061 4.80753 3.08056C4.63935 2.95052 4.43276 2.87997 4.22016 2.88H0.96C0.705392 2.88 0.461212 2.98115 0.281178 3.16118C0.101143 3.34122 0 3.5854 0 3.84C0 4.09461 0.101143 4.33879 0.281178 4.51883C0.461212 4.69886 0.705392 4.8 0.96 4.8H3.47808L6.04128 14.6616L5.03328 16.296C4.94372 16.4415 4.89459 16.6082 4.89096 16.779C4.88733 16.9497 4.92934 17.1184 5.01264 17.2675C5.09582 17.4167 5.2173 17.541 5.36453 17.6276C5.51177 17.7141 5.67944 17.7599 5.85024 17.76H22.56C22.8146 17.76 23.0588 17.6589 23.2388 17.4788C23.4189 17.2988 23.52 17.0546 23.52 16.8C23.52 16.5454 23.4189 16.3012 23.2388 16.1212C23.0588 15.9411 22.8146 15.84 22.56 15.84Z" fill="#DDF23D"/>
</svg>
