<svg width="183" height="57" viewBox="0 0 183 57" fill="none" xmlns="http://www.w3.org/2000/svg">
<path d="M18.2816 55.1917L13.4618 30.1695C11.7752 21.57 7.67669 20.2087 0 20.2087V0.895752H33.8155C33.8155 12.4575 50.5051 10.7576 50.5051 0.929293L77.2657 0.895752L39.9686 55.1917H18.2816Z" fill="#DDF23D"/>
<path d="M21.6284 52.9273L17.2166 25.7397C15.8394 18.719 9.94304 16.3384 3.67676 16.3384V5.13171H29.2944C30.2245 15.2537 46.4573 17.9353 51.9008 8.86701L54.1428 5.13171H68.079L36.0321 52.9265H21.6284V52.9273Z" fill="#1F54BF"/>
<path d="M170.576 29.2533H180.021L183 17.3119H173.555L176.088 6.87994H160.253L157.469 17.3119H119.336C108.794 17.3119 106.802 20.3519 105.247 26.8653L102.837 36.1938C102.578 37.0626 102.562 37.8283 102.449 38.5817C102.042 41.2928 105.039 40.7226 110.867 40.7226C110.867 40.7226 125.449 40.6334 127.576 40.7226C127.705 40.3962 127.834 40.7332 127.576 40.7226C127.576 40.7226 127.446 42.8741 124.726 42.8741H99.6623L69.8848 42.9829C67.6828 42.9829 67.9883 42.6573 67.9883 41.3541C67.9883 40.9206 68.1171 40.3774 68.2469 40.0657L70.5475 31.2494C71.1956 28.5211 72.3844 29.1167 75.3634 29.1167H82.0582C84.1108 29.1559 84.4085 29.349 84.1079 30.8011L83.7877 32.0617H75.3624C68.9048 32.0617 68.3455 35.8755 67.0649 41.1807H68.2821H98.8122L102.494 27.6261C102.882 26.1062 103.012 24.8038 103.012 23.6094C103.012 19.3759 100.422 17.3128 93.8157 17.3128H69.5344C60.0793 17.3128 56.1936 20.6783 54.3801 28.0605L50.0181 44.7205C49.6287 46.3484 49.37 47.7604 49.37 48.954C49.37 53.4051 50.3851 53.5851 55.6744 55.4674H131.331C144.911 55.4674 144.792 54.3148 146.099 50.9362C146.294 50.4306 146.099 50.9362 146.415 49.6273L148.636 40.0109C148.766 39.2509 149.602 35.6244 149.602 34.9732C149.602 31.6077 146.305 32.3039 140.347 32.3039L120.952 32.0773C119.01 32.0773 121.044 28.5039 121.331 28.6013L152.662 28.3174L148.205 45.2882C147.816 46.9162 147.556 48.3282 147.556 49.5217C147.556 53.9728 150.536 56.0352 157.789 56.0352H172.41L175.389 44.0938H169.965C168.022 44.0938 167.116 43.7674 167.116 42.5739C167.116 42.2483 167.245 41.7051 167.374 41.1627L170.576 29.2557V29.2533Z" fill="#DDF23D"/>
<path d="M167.881 26.9676H177.458L179.264 19.7301H169.687L172.042 10.4532H161.052L158.71 19.7301H118.221C111.832 19.7301 109.478 21.5724 108.536 25.5196L106.338 34.4022C106.18 34.9282 106.102 35.3888 106.102 35.8493C106.102 37.8888 107.672 39.1388 111.204 39.1388H132.477C133.654 39.1388 134.047 39.4022 134.047 39.9945C134.047 40.1262 134.047 40.3234 133.968 40.5205L133.104 43.81C132.79 45.06 132.397 45.3888 130.749 45.3888H103.51L66.693 45.4543C65.3588 45.4543 64.8873 45.2571 64.8873 44.4669C64.8873 44.2043 64.9654 43.8746 65.0445 43.4803L68.734 29.1379C69.1264 27.6899 69.5187 27.2956 71.3244 27.2956H87.1024C88.3586 27.2956 88.751 27.559 88.751 28.2168C88.751 28.4802 88.751 28.7428 88.6719 29.0725L87.4948 33.5465H78.2086C74.2946 33.5465 70.9233 35.8575 70.1463 39.0733H96.6004L99.8975 25.981C100.133 25.0598 100.212 24.2704 100.212 23.5464C100.212 20.981 98.6423 19.7301 94.6385 19.7301H67.7921C62.0617 19.7301 59.7064 21.7696 58.6084 26.2436L53.5055 46.5079C53.2693 47.4945 53.1132 48.3502 53.1132 49.0734C53.1132 51.7706 54.9189 53.0206 59.3931 53.0206H134.754C140.249 53.0206 142.603 51.1783 143.624 47.2311L145.979 38.0205C146.058 37.5599 146.136 37.0994 146.136 36.7042C146.136 34.6648 144.567 33.3485 140.955 33.3485H119.446C118.269 33.3485 117.797 33.0196 117.797 32.2957C117.797 32.0985 117.797 31.9005 117.876 31.7034L118.582 28.9399C118.896 27.6237 119.524 27.1631 121.173 27.1631L157.024 26.3974L151.946 46.5063C151.711 47.4929 151.553 48.3486 151.553 49.0718C151.553 51.7689 153.359 53.019 157.755 53.019H170.55L172.356 45.7815H165.134C163.957 45.7815 163.408 45.5835 163.408 44.8604C163.408 44.6632 163.486 44.3343 163.565 44.0047L167.882 26.9643L167.881 26.9676Z" fill="#1F54BF"/>
</svg>
